<svg aria-hidden="true" style="position: absolute; width: 0; height: 0; overflow: hidden;" version="1.1" xmlns="http://www.w3.org/2000/svg" xmlns:xlink="http://www.w3.org/1999/xlink">
<defs>
<symbol id="icon-github" viewBox="0 0 32 32">
<path d="M16 0c-8.84 0-16 7.16-16 16 0 7.080 4.58 13.060 10.94 15.18 0.8 0.14 1.1-0.34 1.1-0.76 0-0.38-0.020-1.64-0.020-2.98-4.020 0.74-5.060-0.98-5.38-1.88-0.18-0.46-0.96-1.88-1.64-2.26-0.56-0.3-1.36-1.040-0.020-1.060 1.26-0.020 2.16 1.16 2.46 1.64 1.44 2.42 3.74 1.74 4.66 1.32 0.14-1.040 0.56-1.74 1.020-2.14-3.56-0.4-7.28-1.78-7.28-7.9 0-1.74 0.62-3.18 1.64-4.3-0.16-0.4-0.72-2.040 0.16-4.24 0 0 1.34-0.42 4.4 1.64 1.28-0.36 2.64-0.54 4-0.54s2.72 0.18 4 0.54c3.060-2.080 4.4-1.64 4.4-1.64 0.88 2.2 0.32 3.84 0.16 4.24 1.020 1.12 1.64 2.54 1.64 4.3 0 6.14-3.74 7.5-7.3 7.9 0.58 0.5 1.080 1.46 1.080 2.96 0 2.14-0.020 3.86-0.020 4.4 0 0.42 0.3 0.92 1.1 0.76 6.391-2.202 10.9-8.165 10.9-15.18 0-0 0-0 0-0v0c0-8.84-7.16-16-16-16z"></path>
</symbol>
<symbol id="icon-email" viewBox="0 0 32 32">
<path d="M29.88 3.331h-27.752c-1.174 0-2.127 0.954-2.127 2.127v21.084c0 1.174 0.954 2.127 2.127 2.127h27.746c1.174 0 2.127-0.954 2.127-2.127v-21.084c0.007-1.174-0.947-2.127-2.12-2.127zM29.739 4.664l-12.816 13.036c-0.507 0.493-1.314 0.5-1.827 0.013l-12.829-13.049zM1.334 26.422v-20.804l10.622 10.802zM2.307 27.336l10.589-9.962 1.26 1.287c0.493 0.48 1.154 0.753 1.84 0.753 0.693 0 1.367-0.273 1.86-0.76l0.947-0.967 10.869 9.649zM30.673 26.449l-10.929-9.722 10.929-11.109z"></path>
</symbol>
<symbol id="icon-phone" viewBox="0 0 32 32">
<path d="M31.176 23.189c-1.52-1.52-4.83-2.936-7.226-3.734-3.421-1.14-2.281 4.562-4.562 4.562-1.14 0-3.991-2.281-6.558-4.847s-4.847-5.418-4.847-6.558c0-2.281 5.702-1.141 4.562-4.562-0.799-2.397-2.214-5.706-3.735-7.226-0.65-0.65-1.319-0.973-1.967-0.757-3.421 1.141-6.843 4.562-6.843 6.843 0 4.562 1.14 10.264 7.983 17.107 6.843 6.842 12.545 7.983 17.107 7.983 2.281 0 5.702-3.421 6.843-6.843 0.216-0.648-0.107-1.317-0.757-1.968zM25.091 30.387c-3.937 0-9.309-0.854-15.967-7.511s-7.511-12.030-7.511-15.967c0-1.267 2.625-4.228 5.64-5.279 0.070 0.037 0.21 0.126 0.417 0.333 1.045 1.045 2.358 3.634 3.345 6.596 0.045 0.137 0.061 0.226 0.066 0.277-0.227 0.182-0.93 0.404-1.361 0.54-1.253 0.395-3.35 1.055-3.35 3.235 0 1.966 2.893 5.271 5.319 7.698s5.732 5.319 7.698 5.319c2.18 0 2.841-2.097 3.235-3.35 0.136-0.431 0.357-1.133 0.54-1.36 0.051 0.005 0.14 0.020 0.277 0.066 2.962 0.988 5.551 2.301 6.596 3.345 0.207 0.207 0.297 0.347 0.333 0.417-1.050 3.016-4.012 5.641-5.278 5.641zM16 6.4v1.6c4.418 0 8 3.582 8 8h1.6c0-5.293-4.307-9.6-9.6-9.6z"></path>
<path d="M16 3.2v1.6c6.186 0 11.2 5.014 11.2 11.2h1.6c0-7.058-5.742-12.8-12.8-12.8z"></path>
<path d="M16 0v1.6c7.953 0 14.4 6.447 14.4 14.4h1.6c0-8.822-7.178-16-16-16z"></path>
</symbol>
<symbol id="icon-location" viewBox="0 0 32 32">
<path d="M16 27.2l-0.512-0.576c-0.32-0.32-7.808-9.152-7.808-14.464 0-4.608 3.712-8.32 8.32-8.32s8.32 3.712 8.32 8.32c0 5.312-7.488 14.144-7.808 14.528zM16 5.12c-3.904 0-7.040 3.136-7.040 7.040 0 4.096 5.376 11.008 7.040 13.056 1.664-2.048 7.040-8.96 7.040-13.056 0-3.904-3.136-7.040-7.040-7.040z"></path>
<path d="M16 15.36c-1.792 0-3.2-1.408-3.2-3.2s1.408-3.2 3.2-3.2 3.2 1.408 3.2 3.2-1.408 3.2-3.2 3.2zM16 10.24c-1.088 0-1.92 0.832-1.92 1.92s0.832 1.92 1.92 1.92 1.92-0.832 1.92-1.92-0.832-1.92-1.92-1.92z"></path>
</symbol>
</defs>
</svg>
