<svg aria-hidden="true" style="position: absolute; width: 0; height: 0; overflow: hidden;" version="1.1" xmlns="http://www.w3.org/2000/svg" xmlns:xlink="http://www.w3.org/1999/xlink">
<defs>
<symbol id="icon-geo" viewBox="0 0 32 32">
<path opacity="0.906" d="M23.094 0l0.281 0.031-0.281 0.031zM23.656 0l0.281 0.031-0.281 0.031zM23.156 1.438l0.719 0.031-0.719 0.031zM18.844 1.625l-0.063 0.125zM28.219 1.688l0.063 0.125zM18.406 2l-0.313 0.375zM29.156 2.625l0.063 0.125zM27.156 2.688l0.063 0.125zM19.594 2.875l-0.063 0.125zM29.406 2.938l0.063 0.125zM27.594 3.063l0.188 0.25zM19.031 3.438l-0.125 0.188zM2.344 4.313l-0.063 0.125zM1.844 4.813l-0.063 0.125zM21.531 5.188l-0.25 0.313zM3.094 5.563l-0.063 0.125zM24.469 6.25l0.125 0.188zM30.906 7.063l0.031 0.719h-0.063zM9.406 7.438l0.281 0.031-0.281 0.031zM9.844 7.438l0.156 0.031-0.156 0.031zM17.531 7.813l0.031 0.156h-0.063zM6.844 8.375l-0.063 0.125zM24.656 8.375l-0.188 0.25zM6.469 8.688l-0.313 0.375zM12.969 8.688l0.313 0.375zM21.031 9.063l0.063 0.125zM13.531 9.313l0.063 0.125zM21.281 9.375l0.25 0.313zM7.531 9.688l-0.375 0.438zM11.906 9.688l0.125 0.188zM12.219 10l0.063 0.125zM4.906 12l0.031 0.531h-0.063zM18.531 13.5l0.031 0.094-15.844 15.844-0.094-0.094 0.094 0.031 15.781-15.781zM27.969 14.313l0.031 0.125-0.125-0.031zM7.094 14.375l0.125 0.188zM12.344 14.375l-0.063 0.125zM7.531 14.813l0.063 0.125zM11.906 14.813l-0.063 0.125zM5.906 15.188l0.063 0.125zM13.344 15.438l-0.438 0.5zM6.281 15.625l0.063 0.125zM9.594 15.625l0.344 0.031-0.344 0.031zM6.719 16l0.063 0.125zM12.656 16.063l-0.063 0.125zM9.594 17.063l0.344 0.031-0.344 0.031zM13.844 20.375l10.094 10.094v0.094l-19.938-0.031 19.875-0.063zM23.531 24.063l-0.063 0.125zM29.406 29.188l0.031 0.156h-0.063zM27.594 30l-0.125 0.188zM26.031 30.5l0.594 0.031-0.594 0.031zM28.844 30.75l-0.063 0.125zM1.969 31l0.188 0.25zM28.281 31.313l-0.063 0.125zM2.406 31.375l0.063 0.125zM3.906 31.938l0.156 0.031-0.156 0.031zM26.531 31.938l0.219 0.031-0.219 0.031z"></path>
<path opacity="0.631" d="M22.844 0l0.219 0.031-0.219 0.031zM23.969 0l0.219 0.031-0.219 0.031zM27.844 1.375l0.063 0.125zM18.969 1.5l-0.063 0.125zM22.656 1.5l0.156 0.031-0.156 0.031zM28.094 1.563l0.063 0.125zM18.594 1.813l-0.125 0.188zM28.469 1.875l0.563 0.625zM18.031 2.375l-0.188 0.25zM20.094 2.5l-0.063 0.125zM19.844 2.688l-0.063 0.125zM29.281 2.75l0.063 0.125zM17.656 2.813l-0.063 0.125zM27.281 2.813l0.063 0.125zM19.469 3l-0.375 0.438zM17.469 3.063l-0.063 0.125zM28.031 3.563l0.063 0.125zM17.094 3.625l-0.063 0.125-12.969-0.031 12.969-0.031zM18.844 3.688l-0.063 0.125zM23.344 4.438l0.344 0.031-0.344 0.031zM2.094 4.5l-0.125 0.188zM25.469 5.188l0.188 0.25zM21.219 5.5l-0.063 0.125zM22.531 6.25l-0.188 0.25zM16.094 6.625l0.031 0.156h-0.063zM29.406 6.75l0.031 0.156h-0.063zM30.906 6.813l0.031 0.219h-0.063zM17.531 7.063l0.031 0.719h-0.063zM20.531 7.063l0.031 0.281h-0.063zM24.969 7.188l0.031 0.156h-0.063zM9.219 7.438l0.156 0.031-0.156 0.031zM10.031 7.438l0.219 0.031-0.219 0.031zM20.531 7.5l0.031 0.281h-0.063zM24.969 7.5l0.031 0.156h-0.063zM30.906 7.813l0.031 0.281h-0.063zM16.094 8.063l0.031 0.219h-0.063zM12.531 8.313l0.063 0.125zM22.344 8.375l0.188 0.25zM6.656 8.5l-0.125 0.188zM12.781 8.5l0.125 0.188zM6.094 9.063l-0.063 0.125zM13.344 9.063l0.125 0.188zM21.156 9.25l0.063 0.125zM5.844 9.375l-0.063 0.125zM25.719 9.375l-0.25 0.313zM21.594 9.688l0.063 0.125zM12.094 9.875l0.063 0.125zM23.281 10.375l0.469 0.031-0.469 0.031zM4.906 11.75l0.031 0.219h-0.063zM9.406 11.875h5.125l0.094 0.094-0.031 0.156-0.031-0.188h-5.156l-0.031 0.031v1.375h-0.063v-1.375zM4.906 12.563l0.031 0.219h-0.063zM14.531 12.625l0.031 0.156h-0.063zM12.469 14.188l-0.063 0.125zM27.969 14.438l0.031 14.594h-0.063zM12.219 14.5l-0.25 0.313zM7.281 14.563l0.188 0.25zM19.281 14.875l-4.375 4.438zM7.719 14.938l0.063 0.125zM13.469 15.313l-0.063 0.125zM6.031 15.375l0.188 0.25zM6.406 15.75l0.188 0.25zM12.844 15.938l-0.063 0.125zM9.281 17.063l0.281 0.031-0.281 0.031zM9.969 17.063l0.219 0.031-0.219 0.031zM14.906 19.375l11.063 11.125zM13.781 20.375l-9.969 10.031-0.031 0.094-0.031-0.094zM23.531 24.125l-0.063 0.125zM2.656 29.125l0.031 0.156h-0.063zM1.844 30.875l0.063 0.125zM28.656 31l-0.188 0.25zM2.219 31.25l0.063 0.125zM3.719 31.938l0.156 0.031-0.156 0.031z"></path>
<path d="M23.406 0q0.419 0.144 1.063 0.063l0.688 0.125 1.313 0.438q1.587 0.725 2.656 1.969 1 1.125 1.5 2.75l0.25 1.188v1.813l-0.188 1-0.375 1.063-0.875 1.5v17.25l-0.125 0.688-0.188 0.5-0.781 0.969-0.875 0.5-1 0.188h-22.375l-0.063-0.063-0.75-0.063-0.563-0.25-0.969-0.844q-0.413-0.556-0.563-1.375v-23.063q0.212-1.256 1.031-1.906 0.569-0.525 1.5-0.688h13.313l0.094-0.094q0.619-1.131 1.594-1.906 0.837-0.725 1.938-1.188l1.188-0.375 0.688-0.125h0.813zM23.188 1.438l-0.063 0.063h-0.5l-0.625 0.125-0.75 0.25q-0.938 0.375-1.625 1-0.813 0.625-1.313 1.563l-0.563 1.25-0.25 1.313 0.063 1.438 0.375 1.313 0.438 0.875 3.5 5.625q0.938 1.563 1.625 3.375l1.563-3.313 3.563-5.75 0.438-0.875 0.375-1.438v-1.563l-0.188-0.875q-0.438-1.563-1.438-2.5-0.938-0.938-2.188-1.5l-1.188-0.313zM3.875 5.188l-0.75 0.375q-0.375 0.313-0.5 0.875v22.938l0.125 0.063 15.813-15.813-1.438-2.313-0.563-1.125-0.313-1-0.125-0.688v-0.5l-0.063-0.063 0.063-1.5 0.313-1.188zM28 14.313q-1.438 2.063-2.563 4.438l-0.875 2.125-1 3.188-0.063 0.063-0.938-2.875-0.625-1.625q-1.063-2.5-2.438-4.563l-0.188-0.188-4.5 4.5 11.25 11.188 0.875-0.063 0.563-0.313 0.375-0.5 0.125-0.5zM13.813 20.375l-10.125 10.125 0.375 0.063h19.875v-0.063z"></path>
<path d="M23.031 4.5h0.875l0.688 0.188q0.75 0.313 1.219 0.906 0.675 0.731 0.625 2.188-0.225 1.306-1.094 1.969l-1.125 0.563q-0.469 0.156-1.188 0.063-1.281-0.25-1.906-1.156-0.413-0.494-0.563-1.25v-1.063q0.275-1.225 1.156-1.844 0.512-0.425 1.313-0.563zM23.188 5.938l-0.563 0.25q-0.438 0.313-0.625 0.875-0.125 0.875 0.25 1.313 0.313 0.438 0.938 0.563 0.875 0.125 1.313-0.313 0.375-0.313 0.5-0.875 0.063-0.938-0.375-1.313-0.313-0.375-0.75-0.5zM9.719 7.438l1.063 0.125 0.938 0.313q1.075 0.519 1.781 1.406l0.375 0.563-1.219 0.719-0.75-0.875q-0.537-0.463-1.313-0.688l-0.25-0.063h-1.188q-1.319 0.275-2.031 1.156l-0.563 0.938-0.188 0.625v0.563l-0.063 0.063 0.063 0.063v0.563l0.188 0.625q0.35 0.869 1.031 1.406l1.25 0.625 1.063 0.125 0.938-0.188 0.438-0.188q0.644-0.356 1.094-0.906l0.5-0.875v-0.156h-3.5v-1.438h5.156l0.031 0.031v0.5l-0.063 0.063v0.5l-0.125 0.563-0.375 0.938q-0.488 0.925-1.281 1.531-0.7 0.581-1.688 0.875l-0.625 0.125h-1.375q-1.981-0.387-3.031-1.719-0.681-0.819-1-2 0.081-0.294-0.063-0.375v-1.375q0.394-2.044 1.781-3.094 0.563-0.469 1.313-0.75l0.938-0.25h0.688z"></path>
<path opacity="0.275" d="M22.656 0l0.156 0.031-0.156 0.031zM24.219 0l0.156 0.031-0.156 0.031zM19.469 1.125l-0.063 0.125zM22.844 1.5l0.156 0.031-0.156 0.031zM24.031 1.5l0.156 0.031-0.156 0.031zM18.781 1.625l-0.125 0.188zM28.344 1.75l0.063 0.125zM26.844 2.5l0.063 0.125zM29.094 2.5l0.125 0.188zM17.781 2.625l-0.063 0.125zM27.094 2.688l0.063 0.125zM19.719 2.813l-0.063 0.125zM27.406 2.938l0.563 0.625zM18.969 3.563l-0.063 0.125zM3.781 3.688l0.281 0.031-0.281 0.031zM28.156 3.75l0.063 0.125zM18.719 3.875l-0.063 0.125zM2.281 4.313l-0.125 0.188zM23.094 4.438l0.219 0.031-0.219 0.031zM23.719 4.438l0.156 0.031-0.156 0.031zM1.906 4.688l-0.125 0.188zM21.719 5l-0.063 0.125zM25.344 5.063l0.063 0.125zM4.031 5.188l12.344 0.031-12.344 0.031zM25.719 5.438l0.125 0.188zM3.219 5.5l-0.25 0.313zM23.344 5.938l0.344 0.031-0.344 0.031zM24.406 6.25l0.25 0.313zM1.156 6.375l0.031 22.969h-0.063zM16.094 6.438l0.031 0.156h-0.063zM2.656 6.563l0.031 22.531h-0.063zM30.906 6.563l0.031 0.219h-0.063zM29.406 6.938l0.031 0.219h-0.063zM26.469 7.125l0.031 0.594h-0.063zM16.031 7.188l0.031 0.469h-0.063zM29.406 7.625l0.031 0.344h-0.063zM17.594 8.063l0.031 0.156h-0.063zM30.906 8.125l0.031 0.156h-0.063zM24.656 8.313l-0.063 0.125zM24.469 8.5l-0.063 0.125zM23.281 8.875l0.406 0.031-0.406 0.031zM9.344 8.938l0.156 0.031-0.156 0.031zM9.969 8.938l0.156 0.031-0.156 0.031zM5.969 9.188l-0.063 0.125zM25.844 9.25l-0.063 0.125zM7.656 9.625l-0.063 0.125zM11.781 9.625l0.063 0.125zM25.406 9.688l-0.063 0.125zM7.219 10.063l-0.125 0.188zM12.281 10.125l0.063 0.125zM23.094 10.375l0.156 0.031-0.156 0.031zM6.406 11.813l0.031 0.156h-0.063zM14.594 12.125l0.031 0.219h-0.063zM6.406 12.563l0.031 0.156h-0.063zM9.406 13.375h3.438l0.031 0.094-0.094-0.031h-3.375zM7.594 14.813l0.063 0.125zM11.781 14.875l-0.063 0.125zM13.594 15.188l-0.063 0.125zM5.906 15.25l0.063 0.125zM13.281 15.563l-0.25 0.313zM12.719 16.063l-0.063 0.125zM9.094 17.063l0.156 0.031-0.156 0.031zM10.219 17.063l0.156 0.031-0.156 0.031zM23.531 19.438l-0.063 0.125zM13.844 20.438l10 10.063zM27.656 29.875l-0.313 0.375zM1.719 30.75l0.063 0.125zM28.781 30.875l-0.063 0.125zM28.406 31.25l-0.063 0.125z"></path>
</symbol>
<symbol id="icon-github" viewBox="0 0 32 32">
<path d="M16 0c-8.84 0-16 7.16-16 16 0 7.080 4.58 13.060 10.94 15.18 0.8 0.14 1.1-0.34 1.1-0.76 0-0.38-0.020-1.64-0.020-2.98-4.020 0.74-5.060-0.98-5.38-1.88-0.18-0.46-0.96-1.88-1.64-2.26-0.56-0.3-1.36-1.040-0.020-1.060 1.26-0.020 2.16 1.16 2.46 1.64 1.44 2.42 3.74 1.74 4.66 1.32 0.14-1.040 0.56-1.74 1.020-2.14-3.56-0.4-7.28-1.78-7.28-7.9 0-1.74 0.62-3.18 1.64-4.3-0.16-0.4-0.72-2.040 0.16-4.24 0 0 1.34-0.42 4.4 1.64 1.28-0.36 2.64-0.54 4-0.54s2.72 0.18 4 0.54c3.060-2.080 4.4-1.64 4.4-1.64 0.88 2.2 0.32 3.84 0.16 4.24 1.020 1.12 1.64 2.54 1.64 4.3 0 6.14-3.74 7.5-7.3 7.9 0.58 0.5 1.080 1.46 1.080 2.96 0 2.14-0.020 3.86-0.020 4.4 0 0.42 0.3 0.92 1.1 0.76 6.391-2.202 10.9-8.165 10.9-15.18 0-0 0-0 0-0v0c0-8.84-7.16-16-16-16z"></path>
</symbol>
<symbol id="icon-email" viewBox="0 0 32 32">
<path d="M29.88 3.331h-27.752c-1.174 0-2.127 0.954-2.127 2.127v21.084c0 1.174 0.954 2.127 2.127 2.127h27.746c1.174 0 2.127-0.954 2.127-2.127v-21.084c0.007-1.174-0.947-2.127-2.12-2.127zM29.739 4.664l-12.816 13.036c-0.507 0.493-1.314 0.5-1.827 0.013l-12.829-13.049zM1.334 26.422v-20.804l10.622 10.802zM2.307 27.336l10.589-9.962 1.26 1.287c0.493 0.48 1.154 0.753 1.84 0.753 0.693 0 1.367-0.273 1.86-0.76l0.947-0.967 10.869 9.649zM30.673 26.449l-10.929-9.722 10.929-11.109z"></path>
</symbol>
<symbol id="icon-phone" viewBox="0 0 32 32">
<path d="M31.176 23.189c-1.52-1.52-4.83-2.936-7.226-3.734-3.421-1.14-2.281 4.562-4.562 4.562-1.14 0-3.991-2.281-6.558-4.847s-4.847-5.418-4.847-6.558c0-2.281 5.702-1.141 4.562-4.562-0.799-2.397-2.214-5.706-3.735-7.226-0.65-0.65-1.319-0.973-1.967-0.757-3.421 1.141-6.843 4.562-6.843 6.843 0 4.562 1.14 10.264 7.983 17.107 6.843 6.842 12.545 7.983 17.107 7.983 2.281 0 5.702-3.421 6.843-6.843 0.216-0.648-0.107-1.317-0.757-1.968zM25.091 30.387c-3.937 0-9.309-0.854-15.967-7.511s-7.511-12.030-7.511-15.967c0-1.267 2.625-4.228 5.64-5.279 0.070 0.037 0.21 0.126 0.417 0.333 1.045 1.045 2.358 3.634 3.345 6.596 0.045 0.137 0.061 0.226 0.066 0.277-0.227 0.182-0.93 0.404-1.361 0.54-1.253 0.395-3.35 1.055-3.35 3.235 0 1.966 2.893 5.271 5.319 7.698s5.732 5.319 7.698 5.319c2.18 0 2.841-2.097 3.235-3.35 0.136-0.431 0.357-1.133 0.54-1.36 0.051 0.005 0.14 0.020 0.277 0.066 2.962 0.988 5.551 2.301 6.596 3.345 0.207 0.207 0.297 0.347 0.333 0.417-1.050 3.016-4.012 5.641-5.278 5.641zM16 6.4v1.6c4.418 0 8 3.582 8 8h1.6c0-5.293-4.307-9.6-9.6-9.6z"></path>
<path d="M16 3.2v1.6c6.186 0 11.2 5.014 11.2 11.2h1.6c0-7.058-5.742-12.8-12.8-12.8z"></path>
<path d="M16 0v1.6c7.953 0 14.4 6.447 14.4 14.4h1.6c0-8.822-7.178-16-16-16z"></path>
</symbol>
</defs>
</svg>
